<?xml version="1.0" standalone="no"?>
<svg xmlns="http://www.w3.org/2000/svg" viewBox="0 0 101.27 116.936" width="101.27" height="116.936"><polygon fill="none" stroke="#72edca" stroke-width="3" points="99.77,29.984 99.77,86.952 50.635,115.436 1.5,86.952 1.5,29.984 50.635,1.5"></polygon><g fill="#0019ff" color="#0019ff" transform="translate(28.634999999999998 22.5) scale(1.0476191)"><svg width="42.0" height="42.0" x="0.0" y="0.0" viewBox="0 0 42 42"><path fill="currentColor" fill-rule="nonzero" d="M21 41.41L41.41.59H.59L21 41.41zm0-7.61l-11.5-23h15.4l-1.7 3.4H15l6 12 9.4-18.8H7.8L6.1 4h29.8L21 33.8z"></path></svg></g><path fill="#0019ff" fill-rule="nonzero" d="M8.96 0Q12.66 0 15.04 1.50Q17.42 3.00 17.47 5.94L17.47 5.94L17.47 6.27L11.68 6.27L11.68 6.16Q11.68 5.32 11.06 4.76Q10.44 4.20 9.18 4.20L9.18 4.20Q7.95 4.20 7.29 4.56Q6.64 4.93 6.64 5.46L6.64 5.46Q6.64 6.22 7.53 6.58Q8.43 6.94 10.42 7.34L10.42 7.34Q12.74 7.81 14.24 8.33Q15.74 8.85 16.86 10.02Q17.98 11.20 18.00 13.22L18.00 13.22Q18.00 16.63 15.69 18.28Q13.38 19.94 9.52 19.94L9.52 19.94Q5.01 19.94 2.51 18.42Q0 16.91 0 13.08L0 13.08L5.85 13.08Q5.85 14.53 6.61 15.02Q7.36 15.51 8.96 15.51L8.96 15.51Q10.14 15.51 10.91 15.26Q11.68 15.01 11.68 14.22L11.68 14.22Q11.68 13.52 10.82 13.17Q9.97 12.82 8.04 12.43L8.04 12.43Q5.68 11.93 4.14 11.38Q2.60 10.84 1.46 9.58Q0.31 8.32 0.31 6.16L0.31 6.16Q0.31 3.00 2.76 1.50Q5.21 0 8.96 0L8.96 0Z" transform="translate(41.633, 74.5)"></path></svg>